<svg width="40" height="29" viewBox="0 0 40 29" fill="none" xmlns="http://www.w3.org/2000/svg">
<path fill-rule="evenodd" clip-rule="evenodd" d="M0 14.2C0 13.0954 0.89543 12.2 2 12.2H38C39.1046 12.2 40 13.0954 40 14.2C40 15.3045 39.1046 16.2 38 16.2H2C0.89543 16.2 0 15.3045 0 14.2Z" fill="#2A2859"/>
<path fill-rule="evenodd" clip-rule="evenodd" d="M0 2.19998C0 1.09541 0.89543 0.199982 2 0.199982H38C39.1046 0.199982 40 1.09541 40 2.19998C40 3.30455 39.1046 4.19998 38 4.19998H2C0.89543 4.19998 0 3.30455 0 2.19998Z" fill="#2A2859"/>
<path fill-rule="evenodd" clip-rule="evenodd" d="M0 26.2C0 25.0954 0.89543 24.2 2 24.2H38C39.1046 24.2 40 25.0954 40 26.2C40 27.3046 39.1046 28.2 38 28.2H2C0.89543 28.2 0 27.3046 0 26.2Z" fill="#2A2859"/>
</svg>
